<svg width="27px" height="50px" viewBox="0 0 27 35" >
    <g stroke="none" stroke-width="1" fill="none" fill-rule="evenodd">
        <g transform="translate(-1189.000000, -2117.000000)" fill="#008E90">
            <g transform="translate(59.000000, 2118.000000)">
                <g transform="translate(336.000000, 0.000000)" >
                    <path d="M807.5,32 C807.5,32 820,19.4035594 820,12.5 C820,5.59644063 814.403559,0 807.5,0 C800.596441,0 795,5.59644063 795,12.5 C795,19.4035594 807.5,32 807.5,32 Z M807.5,17.6386719 C810.813708,17.6386719 813.5,14.9523804 813.5,11.6386719 C813.5,10.2733709 813.043983,9.01457845 812.275951,8.00629778 C811.179901,6.56739043 809.448408,5.63867188 807.5,5.63867188 C805.882691,5.63867188 804.414839,6.27856919 803.33581,7.3189961 C802.204014,8.41030313 801.5,9.94227191 801.5,11.6386719 C801.5,14.9523804 804.186292,17.6386719 807.5,17.6386719 Z" id="OvalOne-Copy-13"></path>
                </g>
            </g>
        </g>
    </g>
</svg>